<svg xmlns="http://www.w3.org/2000/svg" viewBox="0 0 49.57 42.88"><defs><style>.cls-1{fill:#020202;}.cls-1,.cls-4{stroke:#000;}.cls-1,.cls-2,.cls-3,.cls-4{stroke-miterlimit:10;}.cls-2{fill:#fff;}.cls-2,.cls-3{stroke:#231f20;}.cls-3{fill:none;}.cls-4{fill:#dae9ac;}.cls-5{opacity:0.85;}.cls-6{fill:#dae8ac;}</style></defs><g id="Layer_2" data-name="Layer 2"><g id="Layer_1-2" data-name="Layer 1"><path class="cls-1" d="M36,38.17c4.62.79,5.51,1.32,5.44,1.66-.2,1-9.69,1.54-15.67,1.5a71.16,71.16,0,0,1-8.5-.52c-2.48-.31-4.5-.71-6-1"/><path class="cls-2" d="M36.35,21.85a4.1,4.1,0,0,1,4.81-1.52c2.14.91,3.22,3.77,2.69,6a4.94,4.94,0,0,1-2.2,2.94,5.57,5.57,0,0,1-5.3.28"/><path class="cls-2" d="M36.9,23.18c1.75-1.11,3.54-.78,4.23.37a3,3,0,0,1,.17,2.37,3.6,3.6,0,0,1-4.32,2"/><path class="cls-2" d="M36.56,16.53a3.71,3.71,0,0,1-2.7,1.1,3.75,3.75,0,0,1-3.29-1.83,3.81,3.81,0,0,1-2.09.6,3.74,3.74,0,0,1-3.06-1.49,3.85,3.85,0,0,1-6.23-.42,3.88,3.88,0,0,1-5.57.12,3.7,3.7,0,0,1-2.91,1.31,4.46,4.46,0,0,1-1.12-.15A3.81,3.81,0,0,1,6.07,18,3.78,3.78,0,0,1,2.72,16.1,7.75,7.75,0,0,0,2.48,18V34.84a7.27,7.27,0,0,0,1.64,4.59,5.18,5.18,0,0,0,4,1.9H31.13c3.08,0,5.58-2.9,5.58-6.49V18A7.67,7.67,0,0,0,36.56,16.53Z"/><ellipse class="cls-2" cx="19.6" cy="15.66" rx="16.76" ry="4.95"/><path class="cls-2" d="M27.06,35.44c-2.51,2.25-4.31,2.47-5.54,2.18-1.65-.4-2.68-1.84-3.34-1.33s-.47,2.15.08,3.23,1.61,1.44,6.28,1.7c1.44.08,3.45.15,5.87.1"/><ellipse class="cls-2" cx="9.5" cy="25.48" rx="0.61" ry="1.71"/><ellipse class="cls-2" cx="22.05" cy="25.48" rx="0.61" ry="1.71"/><path class="cls-3" d="M42.16,36.53a6.59,6.59,0,0,1-6.5.85c-3.5-1.6-5.15-6.22-5.4-7-1.7-4.95-.62-9.45-2.34-10.75a2,2,0,0,0-2.29.15l-.85.62"/><polygon class="cls-3" points="47.94 42.19 43.13 40.24 41.91 36.72 44.05 34.15 49.01 36.16 47.94 42.19"/><path class="cls-4" d="M4.39,17.52c0-.84,4.19-1.48,7.54-1.51a51.35,51.35,0,0,1,6.66.5c3.41.34,3.8.48,5.53.51,2.49.05,3-.21,5.34-.19,2.08,0,5.52,0,5.6.57s-4.64,2-8.79,2.8c0,0-10.55,2-20.52-1.75C5.13,18.22,4.37,17.89,4.39,17.52Z"/><path class="cls-2" d="M7.46,37.45c-1.13.7-2.68,1.35-4.07.69-1.21-.58-1.73-1.89-2.17-1.72-.75.29-1.14,3,0,4.23a2.46,2.46,0,0,0,1.89.6c1.54.06,3.5.11,5.81.07"/><g class="cls-5"><path class="cls-6" d="M20.83,2.3l1,.91.48.43.23.21.1.1c.15.14.3.31.46.44.48.4-.24-.87-.45-.7a4.22,4.22,0,0,1-.69.56c-1.56.81-3.34,1.22-4.86,2.11A2.07,2.07,0,0,0,16,8.08a4.08,4.08,0,0,0,1.46,2.73,31.1,31.1,0,0,0,4.7,3.32c.38.25,1.3.6,1.18-.21a3.51,3.51,0,0,0-1.58-2l-2.31-1.53c-.36-.24-.73-.48-1.08-.73s-.19-.2,0,0a4.07,4.07,0,0,1,.45.65s.08-.4.1-.44a1.37,1.37,0,0,1,.39-.47,3.33,3.33,0,0,1,.89-.53c.81-.37,1.65-.7,2.47-1,1.22-.51,3.42-1,2.68-2.82a7.39,7.39,0,0,0-1.91-2.33c-.74-.69-1.49-1.37-2.27-2-.28-.25-1.34-1-1.55-.33s.81,1.67,1.23,2Z"/></g></g></g></svg>